<?xml version="1.0" encoding="UTF-8"?>
<svg xmlns="http://www.w3.org/2000/svg" xmlns:xlink="http://www.w3.org/1999/xlink" width="283.464567" height="226.771654" viewBox="0 0 283.464567 226.771654">
<path fill="none" stroke-width="0.283465" stroke-linecap="butt" stroke-linejoin="miter" stroke="rgb(0%, 0%, 0%)" stroke-opacity="1" stroke-miterlimit="10" d="M 56.692822 189.922317 L 269.292861 189.922317 " transform="matrix(0.998115, 0, 0, 0.998115, 0, 0.0998117)"/>
<path fill="none" stroke-width="0.283465" stroke-linecap="butt" stroke-linejoin="miter" stroke="rgb(0%, 0%, 0%)" stroke-opacity="1" stroke-miterlimit="10" d="M 56.692822 189.922317 L 56.692822 195.589251 " transform="matrix(0.998115, 0, 0, 0.998115, 0, 0.0998117)"/>
<path fill="none" stroke-width="0.283465" stroke-linecap="butt" stroke-linejoin="miter" stroke="rgb(0%, 0%, 0%)" stroke-opacity="1" stroke-miterlimit="10" d="M 109.84381 189.922317 L 109.84381 195.589251 " transform="matrix(0.998115, 0, 0, 0.998115, 0, 0.0998117)"/>
<path fill="none" stroke-width="0.283465" stroke-linecap="butt" stroke-linejoin="miter" stroke="rgb(0%, 0%, 0%)" stroke-opacity="1" stroke-miterlimit="10" d="M 162.990885 189.922317 L 162.990885 195.589251 " transform="matrix(0.998115, 0, 0, 0.998115, 0, 0.0998117)"/>
<path fill="none" stroke-width="0.283465" stroke-linecap="butt" stroke-linejoin="miter" stroke="rgb(0%, 0%, 0%)" stroke-opacity="1" stroke-miterlimit="10" d="M 216.141873 189.922317 L 216.141873 195.589251 " transform="matrix(0.998115, 0, 0, 0.998115, 0, 0.0998117)"/>
<path fill="none" stroke-width="0.283465" stroke-linecap="butt" stroke-linejoin="miter" stroke="rgb(0%, 0%, 0%)" stroke-opacity="1" stroke-miterlimit="10" d="M 269.292861 189.922317 L 269.292861 195.589251 " transform="matrix(0.998115, 0, 0, 0.998115, 0, 0.0998117)"/>
<path fill="none" stroke-width="0.283465" stroke-linecap="butt" stroke-linejoin="miter" stroke="rgb(0%, 0%, 0%)" stroke-opacity="1" stroke-miterlimit="10" d="M 51.021974 184.255383 L 51.021974 19.84385 " transform="matrix(0.998115, 0, 0, 0.998115, 0, 0.0998117)"/>
<path fill="none" stroke-width="0.283465" stroke-linecap="butt" stroke-linejoin="miter" stroke="rgb(0%, 0%, 0%)" stroke-opacity="1" stroke-miterlimit="10" d="M 51.021974 167.818143 L 45.35504 167.818143 " transform="matrix(0.998115, 0, 0, 0.998115, 0, 0.0998117)"/>
<path fill="none" stroke-width="0.283465" stroke-linecap="butt" stroke-linejoin="miter" stroke="rgb(0%, 0%, 0%)" stroke-opacity="1" stroke-miterlimit="10" d="M 51.021974 151.373076 L 45.35504 151.373076 " transform="matrix(0.998115, 0, 0, 0.998115, 0, 0.0998117)"/>
<path fill="none" stroke-width="0.283465" stroke-linecap="butt" stroke-linejoin="miter" stroke="rgb(0%, 0%, 0%)" stroke-opacity="1" stroke-miterlimit="10" d="M 51.021974 134.935837 L 45.35504 134.935837 " transform="matrix(0.998115, 0, 0, 0.998115, 0, 0.0998117)"/>
<path fill="none" stroke-width="0.283465" stroke-linecap="butt" stroke-linejoin="miter" stroke="rgb(0%, 0%, 0%)" stroke-opacity="1" stroke-miterlimit="10" d="M 51.021974 118.486856 L 45.35504 118.486856 " transform="matrix(0.998115, 0, 0, 0.998115, 0, 0.0998117)"/>
<path fill="none" stroke-width="0.283465" stroke-linecap="butt" stroke-linejoin="miter" stroke="rgb(0%, 0%, 0%)" stroke-opacity="1" stroke-miterlimit="10" d="M 51.021974 102.045703 L 45.35504 102.045703 " transform="matrix(0.998115, 0, 0, 0.998115, 0, 0.0998117)"/>
<path fill="none" stroke-width="0.283465" stroke-linecap="butt" stroke-linejoin="miter" stroke="rgb(0%, 0%, 0%)" stroke-opacity="1" stroke-miterlimit="10" d="M 51.021974 85.60455 L 45.35504 85.60455 " transform="matrix(0.998115, 0, 0, 0.998115, 0, 0.0998117)"/>
<path fill="none" stroke-width="0.283465" stroke-linecap="butt" stroke-linejoin="miter" stroke="rgb(0%, 0%, 0%)" stroke-opacity="1" stroke-miterlimit="10" d="M 51.021974 69.159483 L 45.35504 69.159483 " transform="matrix(0.998115, 0, 0, 0.998115, 0, 0.0998117)"/>
<path fill="none" stroke-width="0.283465" stroke-linecap="butt" stroke-linejoin="miter" stroke="rgb(0%, 0%, 0%)" stroke-opacity="1" stroke-miterlimit="10" d="M 51.021974 52.71833 L 45.35504 52.71833 " transform="matrix(0.998115, 0, 0, 0.998115, 0, 0.0998117)"/>
<path fill="none" stroke-width="0.283465" stroke-linecap="butt" stroke-linejoin="miter" stroke="rgb(0%, 0%, 0%)" stroke-opacity="1" stroke-miterlimit="10" d="M 51.021974 36.277176 L 45.35504 36.277176 " transform="matrix(0.998115, 0, 0, 0.998115, 0, 0.0998117)"/>
<path fill="none" stroke-width="0.425197" stroke-linecap="butt" stroke-linejoin="miter" stroke="rgb(0%, 50.195312%, 0%)" stroke-opacity="1" stroke-dasharray="5.669291 5.669291" stroke-miterlimit="10" d="M 56.692822 102.045703 L 269.292861 102.045703 " transform="matrix(0.998115, 0, 0, 0.998115, 0, 0.0998117)"/>
<path fill="none" stroke-width="0.850394" stroke-linecap="butt" stroke-linejoin="miter" stroke="rgb(0%, 0%, 0%)" stroke-opacity="1" stroke-miterlimit="10" d="M 56.692822 176.803834 L 58.841404 178.12664 L 60.986072 179.320297 L 63.138568 180.396545 L 65.279323 181.335816 L 67.431819 182.14985 L 69.576487 182.830822 L 71.725069 183.382643 L 73.869737 183.801402 L 76.018319 184.087097 L 78.166901 184.235814 L 80.315483 184.255383 L 82.460152 184.13406 L 84.608734 183.883588 L 86.757316 183.496139 L 88.905898 182.97954 L 91.050566 182.329877 L 93.199148 181.547152 L 95.34773 180.635276 L 97.496312 179.598165 L 99.640981 178.431903 L 101.789563 177.140406 L 103.938145 175.727586 L 106.086727 174.193444 L 108.231395 172.541893 L 110.379977 170.776846 L 112.528559 168.898304 L 114.677141 166.910181 L 116.82181 164.81639 L 118.970392 162.620844 L 121.11506 160.323544 L 123.267556 157.936231 L 125.408311 155.451077 L 127.560806 152.88765 L 129.705475 150.23421 L 131.854057 147.502498 L 133.998725 144.70034 L 136.147307 141.827736 L 138.295889 138.888601 L 140.444471 135.890762 L 142.58914 132.834218 L 144.737722 129.730711 L 146.886304 126.58024 L 149.034886 123.390633 L 151.179554 120.169716 L 153.328136 116.913577 L 155.476718 113.63787 L 157.6253 110.334768 L 159.769969 107.027752 L 166.215715 97.067567 L 168.360383 93.756638 L 170.508965 90.461363 L 172.657547 87.181742 L 174.806129 83.925603 L 176.950798 80.704687 L 179.09938 77.511166 L 181.244048 74.364609 L 183.396544 71.257188 L 185.537299 68.208471 L 187.689794 65.206718 L 189.834463 62.271497 L 191.983045 59.39498 L 194.127713 56.588908 L 196.276295 53.857196 L 198.424877 51.207669 L 200.573459 48.640329 L 202.718128 46.159088 L 204.86671 43.771775 L 207.015292 41.474475 L 209.163874 39.278929 L 211.308542 37.185138 L 213.457124 35.193101 L 215.605706 33.318473 L 217.754288 31.549513 L 219.898957 29.901876 L 222.047539 28.367733 L 224.196121 26.954913 L 226.344703 25.663416 L 228.489371 24.497155 L 230.637953 23.45613 L 232.786535 22.548168 L 234.935117 21.765442 L 237.079786 21.11578 L 239.228368 20.599181 L 241.37695 20.211732 L 243.521618 19.961259 L 245.666286 19.84385 L 247.814868 19.859505 L 249.96345 20.008223 L 252.112032 20.293918 L 254.256701 20.712676 L 256.405283 21.260584 L 258.553865 21.945469 L 260.702447 22.759504 L 262.847115 23.702688 L 264.995697 24.771109 L 267.144279 25.968679 L 269.292861 27.287572 " transform="matrix(0.998115, 0, 0, 0.998115, 0, 0.0998117)"/>
</svg>
